<svg width="22" height="18" viewBox="0 0 22 18" fill="none" xmlns="http://www.w3.org/2000/svg">
<path fill-rule="evenodd" clip-rule="evenodd" d="M5.43864 0.0852906C3.81435 0.486835 2.2998 2.56773 1.23054 5.8667C0.099184 9.35706 -0.307108 13.3292 0.243354 15.5173C0.634684 17.0729 1.54742 18 2.68757 18C4.02396 18 5.3427 16.9115 7.42899 14.0865C8.04381 13.2539 8.62986 12.4813 8.73132 12.3697L8.91573 12.1666H10.9948H13.0739L13.2583 12.3697C13.3598 12.4813 13.9459 13.2539 14.5607 14.0865C16.2384 16.3582 17.3454 17.4274 18.4651 17.8572C19.3188 18.1848 20.3244 17.924 20.9375 17.216C22.1452 15.8211 22.3357 12.5291 21.4456 8.43767C20.5513 4.32668 18.9835 1.29517 17.2762 0.375705C16.0524 -0.283395 14.5365 -0.0770107 12.629 1.00837C11.6882 1.54364 11.3991 1.63601 10.8123 1.58868C10.3585 1.55206 9.98208 1.38887 8.99983 0.803093C7.89266 0.142738 6.41276 -0.155577 5.43864 0.0852906ZM15.8946 4.43183C16.4732 4.94613 16.0827 5.88324 15.3288 5.78953C15.0105 5.75003 14.8226 5.60309 14.6974 5.29554C14.5833 5.01547 14.6564 4.74063 14.915 4.47776C15.1841 4.20418 15.6157 4.18395 15.8946 4.43183ZM6.92756 4.87701C7.19353 5.01207 7.36312 5.41369 7.36319 5.90864L7.36334 6.33322L7.70833 6.33366C8.47436 6.33455 8.88856 6.61721 8.88856 7.13897C8.88856 7.66892 8.50559 7.95771 7.80275 7.95771H7.36334V8.40444C7.36334 9.119 7.07928 9.50836 6.55802 9.50836C6.04692 9.50836 5.76679 9.08702 5.76591 8.3168L5.76548 7.9744L5.25939 7.9453C4.64828 7.91023 4.38224 7.74409 4.28005 7.33376C4.22369 7.10751 4.23713 7.00642 4.35275 6.78697C4.51879 6.47197 4.81323 6.34363 5.38417 6.33736L5.76548 6.33322L5.76591 5.98248C5.76649 5.4241 5.88866 5.08945 6.15122 4.92671C6.41784 4.76145 6.66849 4.74536 6.92756 4.87701ZM13.8098 6.4809C13.8763 6.4809 14.1174 6.98988 14.1176 7.1307C14.1184 7.6015 13.6154 8.01944 13.1681 7.91953C12.863 7.85138 12.5927 7.48986 12.5927 7.14975C12.5927 6.63146 13.0692 6.27622 13.5727 6.41917C13.6923 6.45314 13.799 6.4809 13.8098 6.4809ZM18.0944 6.66831C18.5699 7.22122 17.9781 8.11905 17.2904 7.88823C16.9576 7.77658 16.8001 7.58541 16.759 7.24353C16.6668 6.47706 17.5885 6.0801 18.0944 6.66831ZM15.8401 8.61976C16.4573 9.00233 16.1565 10.0252 15.4268 10.0252C15.097 10.0252 14.7409 9.76222 14.6674 9.4642C14.5947 9.17002 14.7558 8.77763 15.0151 8.61681C15.3059 8.43656 15.5459 8.43738 15.8401 8.61976Z" fill="#DCDEE6"/>
</svg>
