<svg width="15" height="18" viewBox="0 0 15 18" fill="none" xmlns="http://www.w3.org/2000/svg">
<path d="M8.94269 13.0787C8.01354 13.3887 6.98863 13.3887 6.05682 13.0786C5.79574 12.9916 5.51381 13.1328 5.42699 13.3938C5.34013 13.6548 5.48127 13.9368 5.74228 14.0237C6.30972 14.2125 6.90542 14.3069 7.50095 14.3069C8.09648 14.3069 8.69188 14.2124 9.25799 14.0236C9.5189 13.9365 9.65985 13.6544 9.57276 13.3935C9.48573 13.1326 9.20367 12.9917 8.94269 13.0787Z" fill="white"/>
<path d="M13.3022 3.50387C13.0902 1.9835 11.7847 0.783475 10.1678 0.783475H9.59887V0.748047C9.59887 0.472992 9.37588 0.25 9.10082 0.25H5.90004C5.62499 0.25 5.402 0.472992 5.402 0.748047V0.783441H4.83313C3.22971 0.783441 1.92241 1.96673 1.70008 3.50351C0.766475 3.71597 0.0673828 4.5522 0.0673828 5.54919V9.81692C0.0673828 11.1818 1.17912 11.738 1.68411 11.858C1.91215 14.9306 4.49213 17.25 7.50043 17.25C10.5683 17.25 13.0904 14.8692 13.3165 11.8582C14.6255 11.5474 14.9335 10.3598 14.9335 9.81695V5.54922C14.9335 4.55273 14.2351 3.71684 13.3022 3.50387V3.50387ZM9.59887 1.77954H10.1677C11.5769 1.77954 12.1591 2.93172 12.2801 3.45078H9.59887V1.77954ZM6.39809 1.24609H8.60278V3.45078H6.39809V1.24609ZM4.83313 1.77954H5.402V3.45078H2.7228C3.04584 2.09755 4.27176 1.77954 4.83313 1.77954V1.77954ZM7.50043 16.2539C5.04224 16.2539 2.94098 14.3917 2.68917 11.9154H5.1452C5.75637 11.9154 6.35436 11.6677 6.78583 11.2359C6.78839 11.2333 6.79092 11.2307 6.79344 11.2281C6.9808 11.0448 7.23786 10.9399 7.50043 10.9399C7.76307 10.9399 8.02013 11.0449 8.20746 11.2281C8.20995 11.2307 8.21247 11.2333 8.21506 11.2359C8.64654 11.6677 9.24453 11.9154 9.85573 11.9154H12.3115C12.0614 14.3492 9.9992 16.2539 7.50043 16.2539V16.2539ZM13.9374 9.81695C13.9374 10.4333 13.435 10.9193 12.8351 10.9193H9.85573C9.51068 10.9193 9.17314 10.7811 8.92777 10.5398C8.92508 10.537 8.92236 10.5342 8.9196 10.5314C8.5462 10.158 8.02896 9.94385 7.50047 9.94385C6.97201 9.94385 6.45477 10.158 6.08136 10.5314C6.07861 10.5342 6.07585 10.537 6.07316 10.5398C5.82776 10.7811 5.49022 10.9193 5.1452 10.9193H2.16579C1.56773 10.9193 1.06344 10.4354 1.06344 9.81695V5.54922C1.06344 4.9414 1.55797 4.44691 2.16579 4.44691H12.835C13.4429 4.44691 13.9374 4.94144 13.9374 5.54922V9.81695H13.9374Z" fill="white"/>
</svg>
