<svg width="22" height="22" viewBox="0 0 22 22" fill="none" xmlns="http://www.w3.org/2000/svg">
<path fill-rule="evenodd" clip-rule="evenodd" d="M10.0189 0.0563732C7.81555 0.313342 6.26199 1.62785 5.70496 3.70678C5.58103 4.16915 5.5357 4.58882 5.52962 5.32983C5.52235 6.22602 5.54369 6.39088 5.73686 6.92592L5.95233 7.52269L5.77452 7.71194C5.62261 7.87361 5.5967 7.99066 5.5967 8.51443C5.5967 9.27462 5.83176 9.83029 6.23473 10.0224C6.43789 10.1193 6.5204 10.2328 6.62266 10.5559C6.80351 11.1273 7.27171 11.8895 7.77214 12.4272L8.19517 12.8818V13.827C8.19517 14.8732 8.13233 15.0808 7.70762 15.4382C7.28755 15.7917 6.88003 15.9614 4.89703 16.609C2.75773 17.3076 2.18999 17.5872 1.40221 18.3304C0.535764 19.1478 0.0893073 20.1691 0.025345 21.4803L0 22H10.9935H21.987L21.9625 21.4803C21.9052 20.2692 21.4915 19.2628 20.7209 18.4604C19.9094 17.6153 19.1429 17.2332 16.8163 16.5142C14.9113 15.9255 14.2807 15.605 13.9453 15.0548C13.8173 14.8449 13.7924 14.6483 13.7922 13.843L13.7919 12.8818L14.2149 12.4272C14.7153 11.8895 15.1835 11.1273 15.3644 10.5559C15.4666 10.2328 15.5492 10.1193 15.7523 10.0224C16.1553 9.83029 16.3903 9.27462 16.3903 8.51443C16.3903 7.99577 16.3636 7.87249 16.2169 7.7149L16.0434 7.52853L16.2527 6.92888C16.4313 6.41694 16.4619 6.19484 16.4622 5.40978C16.4625 4.90408 16.4156 4.27445 16.358 4.0106C16.2108 3.33468 15.7882 2.46631 15.4291 2.10181C15.0836 1.75089 14.4245 1.41405 14.0814 1.41293C13.9072 1.41229 13.7477 1.30444 13.4265 0.970155C12.629 0.140084 11.6204 -0.130397 10.0189 0.0563732Z" fill="#DCDEE6"/>
</svg>
